SplineFontDB: 3.0
FontName: Monda-Medium
FullName: Monda Medium
FamilyName: Monda
Weight: Normal
Version: 1.000;PS (version unavailable);hotconv 1.0.57;makeotf.lib2.0.21895 DEVELOPMENT
ItalicAngle: 0
UnderlinePosition: 0
UnderlineWidth: 0
Ascent: 1638
Descent: 410
UFOAscent: 1946
UFODescent: -695
LayerCount: 2
Layer: 0 0 "Back"  1
Layer: 1 0 "Fore"  0
FSType: 0
OS2Version: 0
OS2_WeightWidthSlopeOnly: 0
OS2_UseTypoMetrics: 0
CreationTime: 1353198031
ModificationTime: 1353198083
PfmFamily: 0
TTFWeight: 400
TTFWidth: 5
LineGap: 0
VLineGap: 0
Panose: 2 0 6 3 0 0 0 0 0 0
OS2TypoAscent: 1946
OS2TypoAOffset: 0
OS2TypoDescent: -695
OS2TypoDOffset: 0
OS2TypoLinegap: 0
OS2WinAscent: 1946
OS2WinAOffset: 0
OS2WinDescent: 695
OS2WinDOffset: 0
HheadAscent: 1946
HheadAOffset: 0
HheadDescent: -695
HheadDOffset: 0
OS2SubXSize: 1331
OS2SubYSize: 1433
OS2SubXOff: 0
OS2SubYOff: 286
OS2SupXSize: 1331
OS2SupYSize: 1433
OS2SupXOff: 0
OS2SupYOff: 983
OS2StrikeYSize: 102
OS2StrikeYPos: 530
OS2Vendor: 'newt'
OS2CodePages: 00000001.00000000
OS2UnicodeRanges: 000000ef.0000404f.00000002.00000000
Lookup: 258 0 0 "'kern' Horizontal Kerning in Latin lookup 0"  {"'kern' Horizontal Kerning in Latin lookup 0 subtable"  } ['kern' ('latn' <'dflt' > ) ]
DEI: 91125
LangName: 1033 "" "" "" "1.000;newt;Monda-Medium" "" "Version 1.000;PS (version unavailable);hotconv 1.0.57;makeotf.lib2.0.21895 DEVELOPMENT" "" "" "" "" "" "" "" "Copyright (c) 2012, vern (<URL|email>),+AAoA-with Reserved Font Name Monda Medium.+AAoACgAA-This Font Software is licensed under the SIL Open Font License, Version 1.1.+AAoA-This license is copied below, and is also available with a FAQ at:+AAoA-http://scripts.sil.org/OFL" "http://scripts.sil.org/OFL" 
PickledData: "(dp1
S'com.typemytype.robofont.segmentType'
p2
S'curve'
p3
sS'com.typemytype.robofont.sort'
p4
((dp5
S'type'
p6
S'glyphList'
p7
sS'ascending'
p8
(S'.notdef'
S'space'
S'exclam'
S'quotedbl'
S'numbersign'
S'dollar'
S'percent'
S'ampersand'
S'quotesingle'
S'parenleft'

StartChar: .notdef
Encoding: 65536 -1 0
Width: 1024
VWidth: 0
Flags: HW
PickledData: "(dp1
S'com.typemytype.robofont.layerData'
p2
(dp3
s."
LayerCount: 2
Fore
SplineSet
204 102 m 1
 820 102 l 1
 820 990 l 1
 204 990 l 1
 204 102 l 1
102 0 m 1
 102 1092 l 1
 922 1092 l 1
 922 0 l 1
 102 0 l 1
EndSplineSet
EndChar

StartChar: A
Encoding: 65 65 1
Width: 1376
VWidth: 0
Flags: HW
PickledData: "(dp1
S'com.typemytype.robofont.layerData'
p2
(dp3
s."
LayerCount: 2
Fore
SplineSet
1308 0 m 1
 1103 0 l 1
 1005 282 l 1
 376 282 l 1
 277 0 l 1
 68 0 l 1
 599 1446 l 1
 776 1446 l 1
 1308 0 l 1
959 417 m 1
 693 1184 l 1
 424 417 l 1
 959 417 l 1
EndSplineSet
EndChar

StartChar: AE
Encoding: 198 198 2
Width: 1686
VWidth: 0
Flags: HW
PickledData: "(dp1
S'com.typemytype.robofont.layerData'
p2
(dp3
s."
LayerCount: 2
Fore
SplineSet
302 0 m 1
 98 3 l 1
 492 1449 l 1
 1550 1446 l 1
 1550 1296 l 1
 1065 1296 l 1
 1065 814 l 1
 1489 814 l 1
 1489 664 l 1
 1065 664 l 1
 1065 150 l 1
 1559 150 l 1
 1559 0 l 1
 874 0 l 1
 874 282 l 1
 375 282 l 1
 302 0 l 1
411 417 m 1
 874 417 l 1
 874 1296 l 1
 632 1296 l 1
 411 417 l 1
EndSplineSet
EndChar

StartChar: B
Encoding: 66 66 12
Width: 1467
VWidth: 0
Flags: HW
PickledData: "(dp1
S'com.typemytype.robofont.layerData'
p2
(dp3
s."
LayerCount: 2
Fore
SplineSet
806 -1 m 2
 231 -1 l 1
 231 1446 l 1
 769 1446 l 2
 1170 1446 1265 1320 1265 1049 c 0
 1265 922 1237 809 1123 769 c 1
 1274 731 1340 572 1340 448 c 0
 1340 135 1173 -1 806 -1 c 2
433 833 m 1
 834 833 l 2
 1016 833 1064 917 1064 1047 c 0
 1064 1256 993 1295 749 1295 c 2
 433 1295 l 1
 433 833 l 1
433 696 m 1
 433 149 l 1
 786 149 l 2
 1010 149 1139 180 1139 446 c 0
 1139 578 1084 696 863 696 c 2
 433 696 l 1
EndSplineSet
EndChar

StartChar: C
Encoding: 67 67 13
Width: 1460
VWidth: 0
Flags: HW
PickledData: "(dp1
S'com.typemytype.robofont.layerData'
p2
(dp3
s."
LayerCount: 2
Fore
SplineSet
1107 900 m 1
 1107 992 l 2
 1107 1249 1016 1332 760 1332 c 0
 506 1332 385 1249 385 992 c 2
 385 455 l 2
 385 199 506 126 762 126 c 0
 1020 126 1107 199 1107 455 c 2
 1107 558 l 1
 1302 558 l 1
 1302 500 l 2
 1302 203 1227 -24 762 -24 c 0
 279 -24 183 185 183 486 c 2
 183 955 l 2
 183 1261 275 1483 760 1483 c 0
 1227 1483 1302 1248 1302 942 c 2
 1302 900 l 1
 1107 900 l 1
EndSplineSet
EndChar

StartChar: D
Encoding: 68 68 19
Width: 1530
VWidth: 0
Flags: HW
PickledData: "(dp1
S'com.typemytype.robofont.layerData'
p2
(dp3
s."
LayerCount: 2
Fore
SplineSet
781 150 m 2
 989 150 1146 196 1146 462 c 2
 1146 971 l 2
 1146 1238 987 1295 781 1295 c 2
 433 1295 l 1
 433 150 l 1
 781 150 l 2
231 0 m 1
 231 1446 l 1
 799 1446 l 2
 1200 1446 1347 1235 1347 959 c 2
 1347 482 l 2
 1347 169 1168 0 801 0 c 2
 231 0 l 1
EndSplineSet
EndChar

StartChar: E
Encoding: 69 69 22
Width: 1241
VWidth: 0
Flags: HW
PickledData: "(dp1
S'com.typemytype.robofont.layerData'
p2
(dp3
s."
LayerCount: 2
Fore
SplineSet
231 1446 m 1
 1074 1446 l 1
 1074 1296 l 1
 432 1296 l 1
 432 814 l 1
 1013 814 l 1
 1013 664 l 1
 432 664 l 1
 432 150 l 1
 1083 150 l 1
 1083 0 l 1
 231 0 l 1
 231 1446 l 1
EndSplineSet
EndChar

StartChar: Eth
Encoding: 208 208 33
Width: 1530
VWidth: 0
Flags: HW
PickledData: "(dp1
S'com.typemytype.robofont.layerData'
p2
(dp3
s."
LayerCount: 2
Fore
SplineSet
781 150 m 2
 989 150 1146 196 1146 462 c 2
 1146 971 l 2
 1146 1238 987 1295 781 1295 c 2
 433 1295 l 1
 433 809 l 1
 680 809 l 1
 680 668 l 1
 433 668 l 1
 433 150 l 1
 781 150 l 2
231 809 m 1
 231 1446 l 1
 799 1446 l 2
 1200 1446 1347 1235 1347 959 c 2
 1347 482 l 2
 1347 169 1168 0 801 0 c 2
 231 0 l 1
 231 668 l 1
 53 668 l 1
 53 809 l 1
 231 809 l 1
EndSplineSet
EndChar

StartChar: F
Encoding: 70 70 35
Width: 1180
VWidth: 0
Flags: HW
PickledData: "(dp1
S'com.typemytype.robofont.layerData'
p2
(dp3
s."
LayerCount: 2
Fore
SplineSet
231 0 m 1
 231 1446 l 1
 1052 1446 l 1
 1052 1296 l 1
 432 1296 l 1
 432 814 l 1
 1016 814 l 1
 1016 664 l 1
 432 664 l 1
 432 0 l 1
 231 0 l 1
EndSplineSet
EndChar

StartChar: G
Encoding: 71 71 36
Width: 1516
VWidth: 0
Flags: HW
PickledData: "(dp1
S'com.typemytype.robofont.layerData'
p2
(dp3
s."
LayerCount: 2
Fore
SplineSet
1232 0 m 1
 1188 216 l 1
 1154 96 1048 -24 762 -24 c 0
 279 -24 183 185 183 486 c 2
 183 955 l 2
 183 1261 281 1483 766 1483 c 0
 1233 1483 1302 1248 1302 942 c 2
 1302 900 l 1
 1107 900 l 1
 1107 992 l 2
 1107 1249 1022 1332 766 1332 c 0
 512 1332 385 1249 385 992 c 2
 385 455 l 2
 385 199 506 126 762 126 c 0
 1020 126 1107 199 1107 455 c 2
 1107 588 l 1
 883 588 l 1
 883 735 l 1
 1323 735 l 1
 1323 0 l 1
 1232 0 l 1
EndSplineSet
EndChar

StartChar: H
Encoding: 72 72 41
Width: 1543
VWidth: 0
Flags: HW
PickledData: "(dp1
S'com.typemytype.robofont.layerData'
p2
(dp3
s."
LayerCount: 2
Fore
SplineSet
231 1446 m 1
 432 1446 l 1
 432 807 l 1
 1111 807 l 1
 1111 1446 l 1
 1312 1446 l 1
 1312 0 l 1
 1111 0 l 1
 1111 659 l 1
 432 659 l 1
 432 0 l 1
 231 0 l 1
 231 1446 l 1
EndSplineSet
EndChar

StartChar: I
Encoding: 73 73 44
Width: 1133
VWidth: 0
Flags: HW
PickledData: "(dp1
S'com.typemytype.robofont.layerData'
p2
(dp3
s."
LayerCount: 2
Fore
SplineSet
942 0 m 1
 191 0 l 1
 191 150 l 1
 466 150 l 1
 466 1297 l 1
 191 1297 l 1
 191 1446 l 1
 942 1446 l 1
 942 1297 l 1
 667 1297 l 1
 667 150 l 1
 942 150 l 1
 942 0 l 1
EndSplineSet
EndChar

StartChar: J
Encoding: 74 74 55
Width: 1169
VWidth: 0
Flags: HW
PickledData: "(dp1
S'com.typemytype.robofont.layerData'
p2
(dp3
s."
LayerCount: 2
Fore
SplineSet
150 225 m 1
 197 203 331 148 477 148 c 0
 668 148 741 248 741 435 c 2
 741 1281 l 1
 279 1281 l 1
 279 1446 l 1
 942 1446 l 1
 942 431 l 2
 942 157 808 -17 483 -17 c 0
 315 -17 160 36 95 70 c 1
 150 225 l 1
EndSplineSet
EndChar

StartChar: K
Encoding: 75 75 57
Width: 1421
VWidth: 0
Flags: HW
PickledData: "(dp1
S'com.typemytype.robofont.layerData'
p2
(dp3
s."
LayerCount: 2
Fore
SplineSet
231 1446 m 1
 432 1446 l 1
 432 657 l 1
 654 927 889 1183 1117 1446 c 1
 1335 1446 l 1
 791 798 l 1
 1364 0 l 1
 1141 0 l 1
 650 690 l 1
 432 468 l 1
 432 0 l 1
 231 0 l 1
 231 1446 l 1
EndSplineSet
EndChar

StartChar: L
Encoding: 76 76 59
Width: 1148
VWidth: 0
Flags: HW
PickledData: "(dp1
S'com.typemytype.robofont.layerData'
p2
(dp3
s."
LayerCount: 2
Fore
SplineSet
231 1446 m 1
 432 1446 l 1
 432 155 l 1
 1080 155 l 1
 1080 0 l 1
 231 0 l 1
 231 1446 l 1
EndSplineSet
EndChar

StartChar: M
Encoding: 77 77 65
Width: 1786
VWidth: 0
Flags: HW
PickledData: "(dp1
S'com.typemytype.robofont.layerData'
p2
(dp3
s."
LayerCount: 2
Fore
SplineSet
231 0 m 1
 231 1446 l 1
 416 1446 l 1
 894 638 l 1
 1377 1446 l 1
 1555 1446 l 1
 1555 0 l 1
 1365 0 l 1
 1365 1121 l 1
 969 458 l 1
 820 458 l 1
 423 1117 l 1
 423 0 l 1
 231 0 l 1
EndSplineSet
EndChar

StartChar: N
Encoding: 78 78 66
Width: 1616
VWidth: 0
Flags: HW
PickledData: "(dp1
S'com.typemytype.robofont.layerData'
p2
(dp3
s."
LayerCount: 2
Fore
SplineSet
231 0 m 1
 231 1446 l 1
 384 1446 l 1
 1210 281 l 1
 1210 1446 l 1
 1385 1446 l 1
 1385 0 l 1
 1206 0 l 1
 406 1115 l 1
 406 0 l 1
 231 0 l 1
EndSplineSet
EndChar

StartChar: O
Encoding: 79 79 71
Width: 1532
VWidth: 0
Flags: HW
PickledData: "(dp1
S'com.typemytype.robofont.layerData'
p2
(dp3
s."
LayerCount: 2
Fore
SplineSet
775 126 m 0
 1033 126 1148 199 1148 455 c 2
 1148 992 l 2
 1148 1249 1031 1332 775 1332 c 0
 521 1332 385 1249 385 992 c 2
 385 455 l 2
 385 199 519 126 775 126 c 0
775 -24 m 0
 292 -24 183 185 183 486 c 2
 183 955 l 2
 183 1261 290 1483 775 1483 c 0
 1242 1483 1349 1248 1349 942 c 2
 1349 500 l 2
 1349 203 1240 -24 775 -24 c 0
EndSplineSet
EndChar

StartChar: OE
Encoding: 338 338 72
Width: 1505
VWidth: 0
Flags: HW
PickledData: "(dp1
S'com.typemytype.robofont.layerData'
p2
(dp3
s."
LayerCount: 2
Fore
SplineSet
762 150 m 1
 762 1295 l 1
 508 1295 372 1212 372 955 c 2
 372 479 l 2
 372 223 506 150 762 150 c 1
762 0 m 2
 279 0 170 209 170 510 c 2
 170 918 l 2
 170 1224 277 1446 762 1446 c 2
 1377 1446 l 1
 1377 1296 l 1
 963 1296 l 1
 963 814 l 1
 1316 814 l 1
 1316 664 l 1
 963 664 l 1
 963 150 l 1
 1386 150 l 1
 1386 0 l 1
 762 0 l 2
EndSplineSet
EndChar

StartChar: Oslash
Encoding: 216 216 80
Width: 1506
VWidth: 0
Flags: HW
PickledData: "(dp1
S'com.typemytype.robofont.layerData'
p2
(dp3
s."
LayerCount: 2
Fore
SplineSet
502 182 m 1
 922 1319 l 1
 976 1465 l 1
 1054 1676 l 1
 1158 1638 l 1
 1082 1434 l 1
 1292 1350 1349 1164 1349 942 c 2
 1349 500 l 2
 1349 203 1240 -24 775 -24 c 0
 688 -24 614 -17 550 -4 c 1
 614 -17 688 -24 775 -24 c 1
 688 -24 614 -17 550 -4 c 1
 479 -195 l 1
 376 -157 l 1
 444 26 l 1
 476 14 511 4 550 -4 c 1
 511 4 476 14 444 26 c 1
 476 14 511 4 550 -4 c 1
 511 4 476 14 444 26 c 0
 239 105 183 272 183 486 c 2
 183 955 l 1
385 455 m 1
 385 992 l 1
 385 455 l 1
775 126 m 1
 710 126 653 131 604 142 c 1
 653 131 710 126 775 126 c 1
1082 1434 m 1
 1026 1281 l 1
 604 142 l 1
EndSplineSet
EndChar

StartChar: P
Encoding: 80 80 82
Width: 1351
VWidth: 0
Flags: HW
PickledData: "(dp1
S'com.typemytype.robofont.layerData'
p2
(dp3
s."
LayerCount: 2
Fore
SplineSet
433 682 m 1
 811 682 l 2
 986 682 1009 828 1010 935 c 1
 1010 1018 l 2
 1010 1118 995 1293 814 1293 c 2
 433 1293 l 1
 433 682 l 1
231 0 m 1
 231 1446 l 1
 808 1446 l 2
 1051 1446 1206 1320 1212 1024 c 1
 1212 957 l 2
 1212 645 1053 529 807 529 c 2
 433 529 l 1
 433 0 l 1
 231 0 l 1
EndSplineSet
EndChar

StartChar: Q
Encoding: 81 81 83
Width: 1532
VWidth: 0
Flags: HW
PickledData: "(dp1
S'com.typemytype.robofont.layerData'
p2
(dp3
s."
LayerCount: 2
Fore
SplineSet
775 126 m 0
 1033 126 1148 199 1148 455 c 2
 1148 992 l 2
 1148 1249 1031 1332 775 1332 c 0
 521 1332 385 1249 385 992 c 2
 385 455 l 2
 385 199 519 126 775 126 c 0
893 -18 m 1
 1085 -308 l 1
 944 -384 l 1
 713 -23 l 1
 282 -6 183 198 183 486 c 2
 183 955 l 2
 183 1261 290 1483 775 1483 c 0
 1242 1483 1349 1248 1349 942 c 2
 1349 500 l 2
 1349 230 1259 18 893 -18 c 1
EndSplineSet
EndChar

StartChar: R
Encoding: 82 82 84
Width: 1476
VWidth: 0
Flags: HW
PickledData: "(dp1
S'com.typemytype.robofont.layerData'
p2
(dp3
s."
LayerCount: 2
Fore
SplineSet
433 719 m 1
 867 719 l 2
 1042 719 1076 840 1077 947 c 1
 1077 1018 l 2
 1077 1118 1062 1293 881 1293 c 2
 433 1293 l 1
 433 719 l 1
231 0 m 1
 231 1446 l 1
 875 1446 l 2
 1118 1446 1273 1320 1279 1024 c 1
 1279 969 l 2
 1279 763 1205 654 1084 603 c 1
 1341 0 l 1
 1129 0 l 1
 897 567 l 1
 886 567 875 566 863 566 c 2
 433 566 l 1
 433 0 l 1
 231 0 l 1
EndSplineSet
EndChar

StartChar: S
Encoding: 83 83 88
Width: 1303
VWidth: 0
Flags: HW
PickledData: "(dp1
S'com.typemytype.robofont.layerData'
p2
(dp3
s."
LayerCount: 2
Fore
SplineSet
152 209 m 1
 239 338 l 1
 321 252 471 138 671 138 c 0
 855 138 970 196 983 352 c 0
 994 483 939 544 773 616 c 2
 487 740 l 2
 314 815 168 900 176 1118 c 0
 185 1374 410 1481 660 1481 c 0
 927 1481 1086 1371 1151 1284 c 1
 1061 1159 l 1
 986 1250 862 1322 675 1326 c 1
 476 1328 381 1246 372 1137 c 0
 364 1040 393 978 549 911 c 2
 850 780 l 2
 1022 706 1181 618 1175 380 c 0
 1169 124 969 -27 665 -23 c 1
 456 -18 257 72 152 209 c 1
EndSplineSet
EndChar

StartChar: T
Encoding: 84 84 94
Width: 1203
VWidth: 0
Flags: HW
PickledData: "(dp1
S'com.typemytype.robofont.layerData'
p2
(dp3
s."
LayerCount: 2
Fore
SplineSet
84 1446 m 1
 1119 1446 l 1
 1119 1281 l 1
 702 1281 l 1
 702 0 l 1
 501 0 l 1
 501 1281 l 1
 84 1281 l 1
 84 1446 l 1
EndSplineSet
EndChar

StartChar: U
Encoding: 85 85 98
Width: 1526
VWidth: 0
Flags: HW
PickledData: "(dp1
S'com.typemytype.robofont.layerData'
p2
(dp3
s."
LayerCount: 2
Fore
SplineSet
202 473 m 2
 202 1446 l 1
 404 1446 l 1
 404 452 l 2
 404 186 572 132 773 132 c 0
 976 132 1122 186 1122 452 c 2
 1122 1446 l 1
 1324 1446 l 1
 1324 473 l 2
 1324 205 1226 -24 773 -24 c 0
 300 -24 202 202 202 473 c 2
EndSplineSet
EndChar

StartChar: V
Encoding: 86 86 109
Width: 1389
VWidth: 0
Flags: HW
PickledData: "(dp1
S'com.typemytype.robofont.layerData'
p2
(dp3
s."
LayerCount: 2
Fore
SplineSet
92 1446 m 1
 299 1446 l 1
 697 294 l 1
 1095 1446 l 1
 1304 1446 l 1
 784 0 l 1
 607 0 l 1
 92 1446 l 1
EndSplineSet
EndChar

StartChar: W
Encoding: 87 87 110
Width: 1956
VWidth: 0
Flags: HW
PickledData: "(dp1
S'com.typemytype.robofont.layerData'
p2
(dp3
s."
LayerCount: 2
Fore
SplineSet
112 1446 m 1
 289 1446 l 1
 571 346 l 1
 863 1446 l 1
 1078 1446 l 1
 1384 346 l 1
 1662 1446 l 1
 1845 1446 l 1
 1464 0 l 1
 1312 0 l 1
 974 1217 l 1
 642 0 l 1
 490 0 l 1
 112 1446 l 1
EndSplineSet
EndChar

StartChar: X
Encoding: 88 88 115
Width: 1334
VWidth: 0
Flags: HW
PickledData: "(dp1
S'com.typemytype.robofont.layerData'
p2
(dp3
s."
LayerCount: 2
Fore
SplineSet
774 734 m 1
 1243 0 l 1
 1025 0 l 1
 668 568 l 1
 306 0 l 1
 110 0 l 1
 566 731 l 1
 117 1446 l 1
 320 1446 l 1
 670 898 l 1
 1011 1446 l 1
 1228 1446 l 1
 774 734 l 1
EndSplineSet
EndChar

StartChar: Y
Encoding: 89 89 116
Width: 1318
VWidth: 0
Flags: HW
PickledData: "(dp1
S'com.typemytype.robofont.layerData'
p2
(dp3
s."
LayerCount: 2
Fore
SplineSet
65 1446 m 1
 266 1446 l 1
 673 744 l 1
 1066 1446 l 1
 1261 1446 l 1
 773 568 l 1
 773 0 l 1
 572 0 l 1
 572 568 l 1
 65 1446 l 1
EndSplineSet
EndChar

StartChar: Ydieresis
Encoding: 376 376 119
Width: 1093
VWidth: 0
Flags: HW
PickledData: "(dp1
S'com.typemytype.robofont.layerData'
p2
(dp3
s."
LayerCount: 2
Fore
SplineSet
643 1596 m 1
 643 1826 l 1
 910 1826 l 1
 910 1596 l 1
 643 1596 l 1
184 1596 m 1
 184 1826 l 1
 450 1826 l 1
 450 1596 l 1
 184 1596 l 1
0 1459 m 1
 327 1459 l 1
 545 833 l 1
 620 1003 706 1289 781 1459 c 1
 1093 1459 l 1
 624 504 l 1
 624 0 l 1
 313 0 l 1
 313 504 l 1
 0 1459 l 1
EndSplineSet
EndChar

StartChar: Z
Encoding: 90 90 121
Width: 1253
VWidth: 0
Flags: HW
PickledData: "(dp1
S'com.typemytype.robofont.layerData'
p2
(dp3
s."
LayerCount: 2
Fore
SplineSet
211 1446 m 1
 1083 1446 l 1
 1083 1295 l 1
 403 165 l 1
 1095 165 l 1
 1095 0 l 1
 181 0 l 1
 181 150 l 1
 862 1281 l 1
 211 1281 l 1
 211 1446 l 1
EndSplineSet
EndChar

StartChar: a
Encoding: 97 97 125
Width: 1169
VWidth: 0
Flags: HW
PickledData: "(dp1
S'com.typemytype.robofont.layerData'
p2
(dp3
s."
LayerCount: 2
Fore
SplineSet
790 273 m 1
 790 576 l 1
 761 547 699 512 563 477 c 0
 347 421 318 368 324 266 c 0
 330 160 406 113 509 113 c 0
 622 113 760 175 790 273 c 1
1109 128 m 1
 1109 -8 l 1
 1095 -10 1046 -12 1029 -12 c 0
 888 -12 843 42 811 142 c 1
 764 70 675 -20 480 -20 c 0
 255 -20 142 120 142 283 c 0
 142 423 202 514 548 597 c 0
 668 626 790 647 790 753 c 0
 790 830 787 940 595 940 c 0
 382 940 364 830 364 745 c 2
 364 718 l 1
 183 718 l 1
 183 746 l 2
 183 955 323 1080 601 1080 c 0
 881 1080 978 917 978 699 c 2
 978 268 l 2
 978 165 998 128 1109 128 c 1
EndSplineSet
EndChar

StartChar: acute
Encoding: 180 180 129
Width: 616
VWidth: 0
Flags: HW
PickledData: "(dp1
S'com.typemytype.robofont.layerData'
p2
(dp3
s."
LayerCount: 2
Fore
SplineSet
115 1483 m 1
 340 1483 l 1
 478 1142 l 1
 372 1142 l 1
 115 1483 l 1
EndSplineSet
EndChar

StartChar: asciicircum
Encoding: 94 94 138
Width: 1257
VWidth: 0
Flags: HW
PickledData: "(dp1
S'com.typemytype.robofont.layerData'
p2
(dp3
s."
LayerCount: 2
Fore
SplineSet
735 1283 m 1
 1103 626 l 1
 910 626 l 1
 628 1161 l 1
 348 626 l 1
 154 626 l 1
 513 1283 l 1
 735 1283 l 1
EndSplineSet
EndChar

StartChar: asterisk
Encoding: 42 42 139
Width: 1132
VWidth: 0
Flags: HW
PickledData: "(dp1
S'com.typemytype.robofont.layerData'
p2
(dp3
s."
LayerCount: 2
Fore
SplineSet
477 1446 m 1
 655 1446 l 1
 625 1121 l 1
 898 1295 l 1
 979 1134 l 1
 688 1017 l 1
 968 875 l 1
 873 722 l 1
 626 912 l 1
 655 599 l 1
 477 599 l 1
 506 924 l 1
 233 750 l 1
 153 911 l 1
 443 1028 l 1
 163 1170 l 1
 258 1323 l 1
 505 1133 l 1
 477 1446 l 1
EndSplineSet
EndChar

StartChar: at
Encoding: 64 64 140
Width: 1636
VWidth: 0
Flags: HW
PickledData: "(dp1
S'com.typemytype.robofont.layerData'
p2
(dp3
s."
LayerCount: 2
Fore
SplineSet
1174 446 m 1
 1174 718 l 1
 1158 710 1083 685 947 650 c 0
 731 594 702 541 708 439 c 0
 714 333 790 286 893 286 c 0
 1006 286 1144 348 1174 446 c 1
1493 301 m 1
 1493 165 l 1
 1479 163 1430 161 1413 161 c 0
 1272 161 1227 215 1195 315 c 1
 1148 243 1059 153 864 153 c 0
 639 153 526 293 526 456 c 0
 526 596 586 687 932 770 c 0
 1051 799 1173 835 1174 835 c 1
 1174 1037 1169 1158 811 1158 c 0
 557 1158 371 1075 371 818 c 2
 371 281 l 2
 371 25 575 -68 831 -68 c 0
 952 -68 1151 -27 1242 12 c 1
 1304 -128 l 1
 1201 -173 986 -218 831 -218 c 0
 348 -218 183 11 183 312 c 2
 183 781 l 2
 183 1087 326 1309 811 1309 c 0
 1367 1309 1362 1013 1362 842 c 2
 1362 441 l 2
 1362 338 1382 301 1493 301 c 1
EndSplineSet
EndChar

StartChar: b
Encoding: 98 98 142
Width: 1194
VWidth: 0
Flags: HW
PickledData: "(dp1
S'com.typemytype.robofont.layerData'
p2
(dp3
s."
LayerCount: 2
Fore
SplineSet
316 0 m 1
 177 0 l 1
 177 1446 l 1
 365 1446 l 1
 365 1014 l 1
 433 1053 540 1084 639 1084 c 0
 910 1084 1044 940 1044 736 c 2
 1044 352 l 2
 1044 139 891 -16 615 -16 c 0
 489 -16 396 36 340 71 c 1
 316 0 l 1
365 874 m 1
 365 188 l 1
 420 157 498 125 587 125 c 0
 735 125 856 202 856 332 c 2
 856 750 l 2
 856 877 768 942 630 942 c 0
 542 942 435 906 365 874 c 1
EndSplineSet
EndChar

StartChar: backslash
Encoding: 92 92 143
Width: 979
VWidth: 0
Flags: HW
PickledData: "(dp1
S'com.typemytype.robofont.layerData'
p2
(dp3
s."
LayerCount: 2
Fore
SplineSet
665 1446 m 1
 858 1446 l 1
 320 0 l 1
 125 0 l 1
 665 1446 l 1
EndSplineSet
EndChar

StartChar: bar
Encoding: 124 124 144
Width: 666
VWidth: 0
Flags: HW
PickledData: "(dp1
S'com.typemytype.robofont.layerData'
p2
(dp3
s."
LayerCount: 2
Fore
SplineSet
432 1555 m 1
 432 -167 l 1
 254 -167 l 1
 254 1555 l 1
 432 1555 l 1
EndSplineSet
EndChar

StartChar: bracketleft
Encoding: 91 91 147
Width: 827
VWidth: 0
Flags: HW
PickledData: "(dp1
S'com.typemytype.robofont.layerData'
p2
(dp3
s."
LayerCount: 2
Fore
SplineSet
455 58 m 1
 645 58 l 1
 645 -76 l 1
 224 -76 l 1
 224 1529 l 1
 645 1529 l 1
 645 1396 l 1
 455 1396 l 1
 455 58 l 1
EndSplineSet
EndChar

StartChar: bracketright
Encoding: 93 93 148
Width: 804
VWidth: 0
Flags: HW
PickledData: "(dp1
S'com.typemytype.robofont.layerData'
p2
(dp3
s."
LayerCount: 2
Fore
SplineSet
182 1496 m 1
 580 1496 l 1
 580 -76 l 1
 182 -76 l 1
 182 38 l 1
 369 38 l 1
 369 1382 l 1
 182 1382 l 1
 182 1496 l 1
EndSplineSet
EndChar

StartChar: breve
Encoding: 728 728 149
Width: 677
VWidth: 0
Flags: HW
PickledData: "(dp1
S'com.typemytype.robofont.layerData'
p2
(dp3
s."
LayerCount: 2
Fore
SplineSet
112 1483 m 1
 217 1483 l 1
 217 1417 269 1367 338 1367 c 0
 411 1367 459 1414 459 1483 c 1
 565 1483 l 1
 565 1368 477 1271 338 1271 c 0
 199 1271 112 1368 112 1483 c 1
EndSplineSet
EndChar

StartChar: brokenbar
Encoding: 166 166 150
Width: 674
VWidth: 0
Flags: HW
PickledData: "(dp1
S'com.typemytype.robofont.layerData'
p2
(dp3
s."
LayerCount: 2
Fore
SplineSet
432 513 m 1
 432 -167 l 1
 254 -167 l 1
 254 513 l 1
 432 513 l 1
432 1555 m 1
 432 848 l 1
 254 848 l 1
 254 1555 l 1
 432 1555 l 1
EndSplineSet
EndChar

StartChar: bullet
Encoding: 8226 8226 151
Width: 975
VWidth: 0
Flags: HW
PickledData: "(dp1
S'com.typemytype.robofont.layerData'
p2
(dp3
s."
LayerCount: 2
Fore
SplineSet
180 599 m 0
 180 795 262 901 487 901 c 0
 714 901 795 795 795 599 c 0
 795 405 713 298 486 298 c 0
 260 298 180 404 180 599 c 0
EndSplineSet
EndChar

StartChar: c
Encoding: 99 99 152
Width: 1110
VWidth: 0
Flags: HW
PickledData: "(dp1
S'com.typemytype.robofont.layerData'
p2
(dp3
s."
LayerCount: 2
Fore
SplineSet
809 679 m 1
 809 774 l 2
 809 899 724 938 579 938 c 0
 433 938 337 888 337 757 c 2
 337 308 l 2
 337 166 432 121 579 121 c 0
 718 121 809 153 809 283 c 2
 809 356 l 1
 991 356 l 1
 991 289 l 2
 991 94 908 -20 579 -20 c 0
 263 -20 150 118 150 314 c 2
 150 751 l 2
 150 951 316 1080 579 1080 c 0
 842 1080 991 981 991 768 c 2
 991 679 l 1
 809 679 l 1
EndSplineSet
EndChar

StartChar: caron
Encoding: 711 711 154
Width: 901
VWidth: 0
Flags: HW
PickledData: "(dp1
S'com.typemytype.robofont.layerData'
p2
(dp3
s."
LayerCount: 2
Fore
SplineSet
520 1217 m 1
 370 1217 l 1
 164 1483 l 1
 320 1483 l 1
 444 1309 l 1
 576 1483 l 1
 737 1483 l 1
 520 1217 l 1
EndSplineSet
EndChar

StartChar: cedilla
Encoding: 184 184 159
Width: 579
VWidth: 0
Flags: HW
PickledData: "(dp1
S'com.typemytype.robofont.layerData'
p2
(dp3
s."
LayerCount: 2
Fore
SplineSet
282 0 m 1
 288 -94 l 1
 435 -120 509 -214 509 -303 c 0
 509 -397 427 -486 262 -486 c 0
 234 -486 203 -484 169 -478 c 1
 169 -382 l 1
 195 -387 219 -389 240 -389 c 0
 338 -389 380 -342 380 -290 c 0
 380 -229 320 -161 220 -158 c 1
 220 0 l 1
 282 0 l 1
EndSplineSet
EndChar

StartChar: cent
Encoding: 162 162 160
Width: 1133
VWidth: 0
Flags: HW
PickledData: "(dp1
S'com.typemytype.robofont.layerData'
p2
(dp3
s."
LayerCount: 2
Fore
SplineSet
831 694 m 1
 831 792 l 2
 831 920 732 959 587 959 c 0
 441 959 337 908 337 774 c 2
 337 315 l 2
 337 170 440 124 587 124 c 0
 726 124 831 156 831 289 c 2
 831 364 l 1
 1013 364 l 1
 1013 309 l 2
 1013 125 930 0 659 -18 c 1
 659 -205 l 1
 522 -205 l 1
 522 -18 l 1
 254 0 150 135 150 321 c 2
 150 768 l 2
 150 956 296 1081 522 1101 c 1
 522 1275 l 1
 659 1275 l 1
 659 1101 l 1
 879 1081 1013 968 1013 771 c 2
 1013 694 l 1
 831 694 l 1
EndSplineSet
EndChar

StartChar: circumflex
Encoding: 710 710 161
Width: 901
VWidth: 0
Flags: HW
PickledData: "(dp1
S'com.typemytype.robofont.layerData'
p2
(dp3
s."
LayerCount: 2
Fore
SplineSet
381 1483 m 1
 531 1483 l 1
 737 1217 l 1
 581 1217 l 1
 457 1391 l 1
 325 1217 l 1
 164 1217 l 1
 381 1483 l 1
EndSplineSet
EndChar

StartChar: colon
Encoding: 58 58 162
Width: 567
VWidth: 0
Flags: HW
PickledData: "(dp1
S'com.typemytype.robofont.layerData'
p2
(dp3
s."
LayerCount: 2
Fore
SplineSet
164 353 m 1
 415 353 l 1
 415 99 l 1
 164 99 l 1
 164 353 l 1
164 1023 m 1
 415 1023 l 1
 415 768 l 1
 164 768 l 1
 164 1023 l 1
EndSplineSet
EndChar

StartChar: comma
Encoding: 44 44 163
Width: 550
VWidth: 0
Flags: HW
PickledData: "(dp1
S'com.typemytype.robofont.layerData'
p2
(dp3
s."
LayerCount: 2
Fore
SplineSet
165 233 m 1
 422 233 l 1
 422 50 l 2
 422 -141 308 -284 250 -338 c 1
 169 -294 l 1
 216 -239 306 -132 306 0 c 1
 165 0 l 1
 165 233 l 1
EndSplineSet
EndChar

StartChar: copyright
Encoding: 169 169 164
Width: 1865
VWidth: 0
Flags: HW
PickledData: "(dp1
S'com.typemytype.robofont.layerData'
p2
(dp3
s."
LayerCount: 2
Fore
SplineSet
1152 836 m 1
 1152 890 l 2
 1152 1042 1094 1091 942 1091 c 0
 791 1091 711 1042 711 890 c 2
 711 571 l 2
 711 419 791 376 943 376 c 0
 1096 376 1152 419 1152 571 c 2
 1152 632 l 1
 1268 632 l 1
 1268 598 l 2
 1268 422 1219 287 943 287 c 0
 656 287 591 411 591 590 c 2
 591 868 l 2
 591 1050 654 1182 942 1182 c 0
 1219 1182 1268 1043 1268 861 c 2
 1268 836 l 1
 1152 836 l 1
932 -14 m 0
 519 -14 176 303 176 722 c 0
 176 1139 519 1456 932 1456 c 0
 1348 1456 1689 1139 1689 722 c 0
 1689 303 1348 -14 932 -14 c 0
934 82 m 0
 1300 82 1583 357 1583 722 c 0
 1583 1086 1300 1361 934 1361 c 0
 570 1361 285 1086 285 722 c 0
 285 357 570 82 934 82 c 0
EndSplineSet
EndChar

StartChar: d
Encoding: 100 100 166
Width: 1192
VWidth: 0
Flags: HW
PickledData: "(dp1
S'com.typemytype.robofont.layerData'
p2
(dp3
s."
LayerCount: 2
Fore
SplineSet
827 1446 m 1
 1015 1446 l 1
 1015 0 l 1
 887 0 l 1
 856 61 l 1
 794 17 679 -16 570 -16 c 0
 265 -16 150 124 150 328 c 2
 150 735 l 2
 150 948 295 1084 603 1084 c 0
 670 1084 761 1068 827 1044 c 1
 827 1446 l 1
827 189 m 1
 827 896 l 1
 771 923 693 943 605 943 c 0
 457 943 338 886 338 756 c 2
 338 314 l 2
 338 187 444 126 582 126 c 0
 689 126 784 163 827 189 c 1
EndSplineSet
EndChar

StartChar: dagger
Encoding: 8224 8224 167
Width: 890
VWidth: 0
Flags: HW
PickledData: "(dp1
S'com.typemytype.robofont.layerData'
p2
(dp3
s."
LayerCount: 2
Fore
SplineSet
348 1446 m 1
 536 1446 l 1
 536 1060 l 1
 802 1060 l 1
 802 931 l 1
 536 931 l 1
 536 0 l 1
 348 0 l 1
 348 931 l 1
 88 931 l 1
 88 1060 l 1
 348 1060 l 1
 348 1446 l 1
EndSplineSet
EndChar

StartChar: daggerdbl
Encoding: 8225 8225 168
Width: 938
VWidth: 0
Flags: HW
PickledData: "(dp1
S'com.typemytype.robofont.layerData'
p2
(dp3
s."
LayerCount: 2
Fore
SplineSet
372 0 m 1
 372 409 l 1
 112 409 l 1
 112 538 l 1
 372 538 l 1
 372 931 l 1
 112 931 l 1
 112 1060 l 1
 372 1060 l 1
 372 1446 l 1
 560 1446 l 1
 560 1060 l 1
 826 1060 l 1
 826 931 l 1
 560 931 l 1
 560 538 l 1
 826 538 l 1
 826 409 l 1
 560 409 l 1
 560 0 l 1
 372 0 l 1
EndSplineSet
EndChar

StartChar: degree
Encoding: 176 176 171
Width: 1036
VWidth: 0
Flags: HW
PickledData: "(dp1
S'com.typemytype.robofont.layerData'
p2
(dp3
s."
LayerCount: 2
Fore
SplineSet
490 1360 m 0
 318 1360 265 1222 265 1123 c 0
 265 1024 317 885 490 885 c 0
 665 885 717 1024 717 1122 c 0
 717 1221 666 1360 490 1360 c 0
866 1123 m 0
 866 916 773 799 489 799 c 0
 270 799 160 950 160 1122 c 0
 160 1295 270 1445 490 1445 c 0
 770 1445 866 1330 866 1123 c 0
EndSplineSet
EndChar

StartChar: dieresis
Encoding: 168 168 172
Width: 956
VWidth: 0
Flags: HW
PickledData: "(dp1
S'com.typemytype.robofont.layerData'
p2
(dp3
s."
LayerCount: 2
Fore
SplineSet
117 1265 m 1
 117 1446 l 1
 323 1446 l 1
 323 1265 l 1
 117 1265 l 1
620 1265 m 1
 620 1446 l 1
 826 1446 l 1
 826 1265 l 1
 620 1265 l 1
EndSplineSet
EndChar

StartChar: divide
Encoding: 247 247 173
Width: 1073
VWidth: 0
Flags: HW
PickledData: "(dp1
S'com.typemytype.robofont.layerData'
p2
(dp3
s."
LayerCount: 2
Fore
SplineSet
949 609 m 1
 949 472 l 1
 124 472 l 1
 124 609 l 1
 949 609 l 1
648 996 m 1
 648 787 l 1
 431 787 l 1
 431 996 l 1
 648 996 l 1
648 299 m 1
 648 90 l 1
 431 90 l 1
 431 299 l 1
 648 299 l 1
EndSplineSet
EndChar

StartChar: dollar
Encoding: 36 36 174
Width: 1303
VWidth: 0
Flags: HW
PickledData: "(dp1
S'com.typemytype.robofont.layerData'
p2
(dp3
s."
LayerCount: 2
Fore
SplineSet
620 -21 m 1
 635 -22 650 -23 665 -23 c 0
 687 -23 709 -22 730 -21 c 1
 730 -242 l 1
 620 -242 l 1
 620 -21 l 1
620 -21 m 1
 620 140 l 1
 445 157 314 259 239 338 c 1
 152 209 l 1
 249 82 428 -5 620 -21 c 1
620 880 m 1
 549 911 l 2
 393 978 364 1040 372 1137 c 0
 380 1235 458 1312 620 1324 c 1
 620 1480 l 1
 386 1469 185 1360 176 1118 c 0
 168 900 314 815 487 740 c 2
 620 682 l 1
 620 880 l 1
620 880 m 1
 620 1324 l 1
 637 1325 656 1326 675 1326 c 0
 694 1326 712 1325 730 1323 c 1
 730 832 l 1
 620 880 l 1
620 1480 m 1
 620 1638 l 1
 730 1638 l 1
 730 1478 l 1
 708 1480 684 1481 660 1481 c 0
 647 1481 633 1481 620 1480 c 1
620 682 m 1
 730 635 l 1
 730 140 l 1
 711 138 692 138 671 138 c 0
 654 138 637 138 620 140 c 1
 620 682 l 1
730 -21 m 1
 997 -4 1169 143 1175 380 c 0
 1181 618 1022 706 850 780 c 2
 730 832 l 1
 730 635 l 1
 773 616 l 2
 939 544 994 483 983 352 c 0
 971 213 879 152 730 140 c 1
 730 -21 l 1
730 1323 m 1
 887 1307 994 1241 1061 1159 c 1
 1151 1284 l 1
 1092 1363 955 1461 730 1478 c 1
 730 1323 l 1
EndSplineSet
EndChar

StartChar: dotaccent
Encoding: 729 729 175
Width: 576
VWidth: 0
Flags: HW
PickledData: "(dp1
S'com.typemytype.robofont.layerData'
p2
(dp3
s."
LayerCount: 2
Fore
SplineSet
161 1483 m 1
 415 1483 l 1
 415 1242 l 1
 161 1242 l 1
 161 1483 l 1
EndSplineSet
EndChar

StartChar: e
Encoding: 101 101 177
Width: 1131
VWidth: 0
Flags: HW
PickledData: "(dp1
S'com.typemytype.robofont.layerData'
p2
(dp3
s."
LayerCount: 2
Fore
SplineSet
338 633 m 1
 817 633 l 1
 817 778 l 2
 817 906 731 938 586 938 c 0
 436 938 338 891 338 760 c 2
 338 633 l 1
580 -20 m 0
 264 -20 150 122 150 326 c 2
 150 743 l 2
 150 943 307 1080 586 1080 c 0
 862 1080 999 959 999 758 c 2
 999 506 l 1
 338 506 l 1
 338 316 l 2
 338 168 416 121 580 121 c 0
 719 121 822 134 822 264 c 2
 822 353 l 1
 999 353 l 1
 999 267 l 2
 999 67 909 -20 580 -20 c 0
EndSplineSet
EndChar

StartChar: eight
Encoding: 56 56 185
Width: 1389
VWidth: 0
Flags: HW
PickledData: "(dp1
S'com.typemytype.robofont.layerData'
p2
(dp3
s."
LayerCount: 2
Fore
SplineSet
1017 372 m 0
 1017 529 857 601 695 680 c 1
 532 601 372 529 372 372 c 0
 372 199 505 138 696 138 c 0
 884 138 1017 199 1017 372 c 0
404 1122 m 0
 404 992 549 916 695 846 c 1
 841 917 985 992 985 1122 c 0
 985 1245 895 1326 696 1326 c 0
 495 1326 404 1245 404 1122 c 0
1208 367 m 0
 1208 103 1001 -23 691 -23 c 0
 377 -23 181 103 181 367 c 0
 181 580 350 703 508 773 c 1
 357 842 209 937 209 1123 c 0
 209 1390 441 1481 696 1481 c 0
 948 1481 1180 1390 1180 1123 c 0
 1180 937 1032 842 881 773 c 1
 1039 703 1208 580 1208 367 c 0
EndSplineSet
EndChar

StartChar: ellipsis
Encoding: 8230 8230 186
Width: 1427
VWidth: 0
Flags: HW
PickledData: "(dp1
S'com.typemytype.robofont.layerData'
p2
(dp3
s."
LayerCount: 2
Fore
SplineSet
1776 255 m 1
 2029 255 l 1
 2029 0 l 1
 1776 0 l 1
 1776 255 l 1
944 255 m 1
 1197 255 l 1
 1197 0 l 1
 944 0 l 1
 944 255 l 1
112 255 m 1
 365 255 l 1
 365 0 l 1
 112 0 l 1
 112 255 l 1
EndSplineSet
EndChar

StartChar: emdash
Encoding: 8212 8212 188
Width: 1101
VWidth: 0
Flags: HW
PickledData: "(dp1
S'com.typemytype.robofont.layerData'
p2
(dp3
s."
LayerCount: 2
Fore
SplineSet
2 548 m 1
 1098 548 l 1
 1098 402 l 1
 2 402 l 1
 2 548 l 1
EndSplineSet
EndChar

StartChar: endash
Encoding: 8211 8211 189
Width: 539
VWidth: 0
Flags: HW
PickledData: "(dp1
S'com.typemytype.robofont.layerData'
p2
(dp3
s."
LayerCount: 2
Fore
SplineSet
2 732 m 1
 535 732 l 1
 535 606 l 1
 2 606 l 1
 2 732 l 1
EndSplineSet
EndChar

StartChar: equal
Encoding: 61 61 192
Width: 1217
VWidth: 0
Flags: HW
PickledData: "(dp1
S'com.typemytype.robofont.layerData'
p2
(dp3
s."
LayerCount: 2
Fore
SplineSet
207 953 m 1
 1010 953 l 1
 1010 805 l 1
 207 805 l 1
 207 953 l 1
207 615 m 1
 1010 615 l 1
 1010 467 l 1
 207 467 l 1
 207 615 l 1
EndSplineSet
EndChar

StartChar: eth
Encoding: 240 240 193
Width: 1158
VWidth: 0
Flags: HW
PickledData: "(dp1
S'com.typemytype.robofont.layerData'
p2
(dp3
s."
LayerCount: 2
Fore
SplineSet
587 -20 m 0
 271 -20 150 118 150 314 c 2
 150 646 l 2
 150 846 324 975 587 975 c 0
 653 975 755 944 782 921 c 1
 754 1052 687 1148 606 1220 c 1
 391 1078 l 1
 323 1162 l 1
 514 1288 l 1
 413 1353 307 1387 243 1407 c 1
 317 1515 l 1
 378 1502 512 1470 646 1375 c 1
 794 1473 l 1
 863 1389 l 1
 733 1303 l 1
 882 1162 1010 928 1010 536 c 2
 1010 365 l 2
 1010 170 970 -20 587 -20 c 0
587 121 m 0
 820 121 828 229 828 359 c 2
 828 593 l 2
 828 624 820 701 805 783 c 1
 762 813 647 833 587 833 c 0
 441 833 337 783 337 652 c 2
 337 308 l 2
 337 166 440 121 587 121 c 0
EndSplineSet
EndChar

StartChar: exclam
Encoding: 33 33 194
Width: 680
VWidth: 0
Flags: HW
PickledData: "(dp1
S'com.typemytype.robofont.layerData'
p2
(dp3
s."
LayerCount: 2
Fore
SplineSet
249 1446 m 1
 451 1446 l 1
 451 1060 372 371 372 371 c 1
 316 371 l 1
 316 371 249 1060 249 1446 c 1
242 206 m 1
 447 206 l 1
 447 0 l 1
 242 0 l 1
 242 206 l 1
EndSplineSet
EndChar

StartChar: exclamdown
Encoding: 161 161 195
Width: 468
VWidth: 0
Flags: HW
PickledData: "(dp1
S'com.typemytype.robofont.layerData'
p2
(dp3
s."
LayerCount: 2
Fore
SplineSet
347 -362 m 1
 145 -362 l 1
 214 713 l 1
 290 713 l 1
 347 -362 l 1
349 878 m 1
 144 878 l 1
 144 1084 l 1
 349 1084 l 1
 349 878 l 1
EndSplineSet
EndChar

StartChar: f
Encoding: 102 102 196
Width: 789
VWidth: 0
Flags: HW
PickledData: "(dp1
S'com.typemytype.robofont.layerData'
p2
(dp3
s."
LayerCount: 2
Fore
SplineSet
576 1446 m 2
 747 1446 l 1
 747 1313 l 1
 591 1313 l 2
 476 1313 470 1256 470 1180 c 2
 470 1060 l 1
 735 1060 l 1
 735 943 l 1
 470 943 l 1
 470 0 l 1
 282 0 l 1
 282 943 l 1
 105 943 l 1
 105 1060 l 1
 282 1060 l 1
 282 1162 l 2
 282 1360 358 1446 576 1446 c 2
EndSplineSet
EndChar

StartChar: uniFB01
Encoding: 64257 64257 197
Width: 1248
VWidth: 0
Flags: HW
PickledData: "(dp1
S'com.typemytype.robofont.layerData'
p2
(dp3
s."
LayerCount: 2
Fore
SplineSet
557 1446 m 2
 663 1446 l 1
 663 1313 l 1
 592 1313 l 2
 457 1313 451 1256 451 1180 c 2
 451 1060 l 1
 864 1060 l 1
 935 1060 l 1
 935 943 l 1
 864 943 l 1
 451 943 l 1
 451 0 l 1
 263 0 l 1
 263 943 l 1
 101 943 l 1
 101 1060 l 1
 263 1060 l 1
 263 1149 l 2
 263 1347 339 1446 557 1446 c 2
864 0 m 1
 864 943 l 1
 864 0 l 1
1051 1060 m 1
 935 1060 l 1
 1051 1060 l 1
EndSplineSet
EndChar

StartChar: five
Encoding: 53 53 198
Width: 1348
VWidth: 0
Flags: HW
PickledData: "(dp1
S'com.typemytype.robofont.layerData'
p2
(dp3
s."
LayerCount: 2
Fore
SplineSet
1201 466 m 0
 1201 166 1007 -24 655 -24 c 0
 431 -24 273 66 187 136 c 1
 241 280 l 1
 342 207 482 127 666 127 c 0
 918 127 1009 284 1009 466 c 0
 1009 478 1009 491 1008 504 c 0
 998 680 868 762 700 762 c 0
 601 762 500 727 397 652 c 1
 251 712 l 1
 322 1446 l 1
 1099 1446 l 1
 1099 1281 l 1
 483 1281 l 1
 432 826 l 1
 545 885 647 911 748 911 c 0
 1002 911 1184 762 1199 515 c 0
 1200 499 1201 482 1201 466 c 0
EndSplineSet
EndChar

StartChar: uniFB02
Encoding: 64258 64258 199
Width: 1377
VWidth: 0
Flags: HW
PickledData: "(dp1
S'com.typemytype.robofont.layerData'
p2
(dp3
s."
LayerCount: 2
Fore
SplineSet
1086 1446 m 1
 1086 360 l 2
 1086 217 1104 145 1291 145 c 2
 1320 145 l 1
 1320 0 l 1
 1248 0 l 2
 1016 0 898 83 898 362 c 2
 898 1313 l 1
 622 1313 l 2
 488 1313 451 1224 451 1148 c 2
 451 1060 l 1
 666 1060 l 1
 666 943 l 1
 451 943 l 1
 451 0 l 1
 263 0 l 1
 263 943 l 1
 101 943 l 1
 101 1060 l 1
 263 1060 l 1
 263 1258 369 1446 587 1446 c 2
 1086 1446 l 1
EndSplineSet
EndChar

StartChar: florin
Encoding: 402 402 200
Width: 890
VWidth: 0
Flags: HW
PickledData: "(dp1
S'com.typemytype.robofont.layerData'
p2
(dp3
s."
LayerCount: 2
Fore
SplineSet
710 1334 m 1
 695 1335 681 1336 668 1336 c 0
 521 1336 521 1247 521 1177 c 2
 521 858 l 1
 650 858 l 1
 650 727 l 1
 521 727 l 1
 521 91 l 2
 521 -81 494 -191 253 -191 c 0
 220 -191 190 -189 141 -183 c 1
 141 -59 l 1
 164 -61 184 -62 201 -62 c 0
 333 -62 333 -1 333 63 c 2
 333 727 l 1
 216 727 l 1
 216 858 l 1
 333 858 l 1
 333 1155 l 2
 333 1321 353 1466 560 1466 c 0
 594 1466 654 1464 710 1458 c 1
 710 1334 l 1
EndSplineSet
EndChar

StartChar: four
Encoding: 52 52 201
Width: 1243
VWidth: 0
Flags: HW
PickledData: "(dp1
S'com.typemytype.robofont.layerData'
p2
(dp3
s."
LayerCount: 2
Fore
SplineSet
781 837 m 1
 948 837 l 1
 948 506 l 1
 1160 506 l 1
 1160 351 l 1
 948 351 l 1
 948 0 l 1
 781 0 l 1
 781 351 l 1
 141 351 l 1
 141 508 l 1
 670 1444 l 1
 879 1444 l 1
 365 506 l 1
 781 506 l 1
 781 837 l 1
EndSplineSet
EndChar

StartChar: fraction
Encoding: 8260 8260 202
Width: 979
VWidth: 0
Flags: HW
PickledData: "(dp1
S'com.typemytype.robofont.layerData'
p2
(dp3
s."
LayerCount: 2
Fore
SplineSet
665 1446 m 1
 858 1446 l 1
 320 0 l 1
 125 0 l 1
 665 1446 l 1
EndSplineSet
EndChar

StartChar: g
Encoding: 103 103 203
Width: 1186
VWidth: 0
Flags: HW
PickledData: "(dp1
S'com.typemytype.robofont.layerData'
p2
(dp3
s."
LayerCount: 2
Fore
SplineSet
1017 30 m 2
 1017 -188 890 -350 610 -350 c 0
 467 -350 350 -335 252 -282 c 1
 304 -143 l 1
 343 -169 471 -210 604 -210 c 0
 796 -210 829 -100 829 -23 c 2
 829 125 l 1
 769 69 656 40 583 40 c 0
 312 40 150 157 150 377 c 2
 150 728 l 2
 150 941 281 1076 557 1076 c 0
 665 1076 799 1025 829 975 c 1
 829 1060 l 1
 1017 1060 l 1
 1017 30 l 2
585 935 m 0
 437 935 338 878 338 748 c 2
 338 348 l 2
 338 221 444 182 582 182 c 0
 722 182 799 240 829 264 c 1
 829 810 l 2
 829 869 752 935 585 935 c 0
EndSplineSet
EndChar

StartChar: grave
Encoding: 96 96 209
Width: 616
VWidth: 0
Flags: HW
PickledData: "(dp1
S'com.typemytype.robofont.layerData'
p2
(dp3
s."
LayerCount: 2
Fore
SplineSet
115 1496 m 1
 340 1496 l 1
 478 1155 l 1
 372 1155 l 1
 115 1496 l 1
EndSplineSet
EndChar

StartChar: greater
Encoding: 62 62 210
Width: 1455
VWidth: 0
Flags: HW
PickledData: "(dp1
S'com.typemytype.robofont.layerData'
p2
(dp3
s."
LayerCount: 2
Fore
SplineSet
318 219 m 1
 1039 571 l 1
 318 927 l 1
 318 1144 l 1
 1204 673 l 1
 1204 472 l 1
 318 0 l 1
 318 219 l 1
EndSplineSet
EndChar

StartChar: h
Encoding: 104 104 216
Width: 1214
VWidth: 0
Flags: HW
PickledData: "(dp1
S'com.typemytype.robofont.layerData'
p2
(dp3
s."
LayerCount: 2
Fore
SplineSet
177 0 m 1
 177 1446 l 1
 365 1446 l 1
 365 961 l 1
 427 1033 528 1084 682 1084 c 0
 943 1084 1052 942 1052 774 c 2
 1052 0 l 1
 864 0 l 1
 864 787 l 2
 864 892 765 942 634 942 c 0
 450 942 365 861 365 759 c 2
 365 0 l 1
 177 0 l 1
EndSplineSet
EndChar

StartChar: hungarumlaut
Encoding: 733 733 219
Width: 986
VWidth: 0
Flags: HW
PickledData: "(dp1
S'com.typemytype.robofont.layerData'
p2
(dp3
s."
LayerCount: 2
Fore
SplineSet
707 1483 m 1
 917 1483 l 1
 601 1008 l 1
 478 1008 l 1
 707 1483 l 1
343 1483 m 1
 554 1483 l 1
 335 1008 l 1
 237 1008 l 1
 343 1483 l 1
EndSplineSet
EndChar

StartChar: hyphen
Encoding: 45 45 220
Width: 942
VWidth: 0
Flags: HW
PickledData: "(dp1
S'com.typemytype.robofont.layerData'
p2
(dp3
s."
LayerCount: 2
Fore
SplineSet
822 642 m 1
 822 494 l 1
 120 494 l 1
 120 642 l 1
 822 642 l 1
EndSplineSet
EndChar

StartChar: i
Encoding: 105 105 221
Width: 592
VWidth: 0
Flags: HW
PickledData: "(dp1
S'com.typemytype.robofont.layerData'
p2
(dp3
s."
LayerCount: 2
Fore
SplineSet
219 1060 m 1
 406 1060 l 1
 406 0 l 1
 219 0 l 1
 219 1060 l 1
208 1446 m 1
 413 1446 l 1
 413 1251 l 1
 208 1251 l 1
 208 1446 l 1
EndSplineSet
EndChar

StartChar: j
Encoding: 106 106 233
Width: 596
VWidth: 0
Flags: HW
PickledData: "(dp1
S'com.typemytype.robofont.layerData'
p2
(dp3
s."
LayerCount: 2
Fore
SplineSet
238 1061 m 1
 422 1061 l 1
 422 9 l 2
 422 -153 316 -251 140 -251 c 2
 34 -251 l 1
 34 -117 l 1
 104 -117 l 2
 237 -117 238 -14 238 26 c 2
 238 1061 l 1
223 1446 m 1
 428 1446 l 1
 428 1251 l 1
 223 1251 l 1
 223 1446 l 1
EndSplineSet
EndChar

StartChar: k
Encoding: 107 107 235
Width: 1131
VWidth: 0
Flags: HW
PickledData: "(dp1
S'com.typemytype.robofont.layerData'
p2
(dp3
s."
LayerCount: 2
Fore
SplineSet
177 1446 m 1
 365 1446 l 1
 365 510 l 1
 535 692 702 877 871 1060 c 1
 1079 1060 l 1
 657 583 l 1
 1089 0 l 1
 880 0 l 1
 511 498 l 1
 365 354 l 1
 365 0 l 1
 177 0 l 1
 177 1446 l 1
EndSplineSet
EndChar

StartChar: l
Encoding: 108 108 238
Width: 737
VWidth: 0
Flags: HW
PickledData: "(dp1
S'com.typemytype.robofont.layerData'
p2
(dp3
s."
LayerCount: 2
Fore
SplineSet
190 359 m 2
 190 1446 l 1
 378 1446 l 1
 378 357 l 2
 378 214 388 142 575 142 c 2
 672 142 l 1
 672 -3 l 1
 532 -3 l 2
 300 -3 190 80 190 359 c 2
EndSplineSet
EndChar

StartChar: less
Encoding: 60 60 243
Width: 1455
VWidth: 0
Flags: HW
PickledData: "(dp1
S'com.typemytype.robofont.layerData'
p2
(dp3
s."
LayerCount: 2
Fore
SplineSet
1137 925 m 1
 416 573 l 1
 1137 217 l 1
 1137 0 l 1
 251 471 l 1
 251 672 l 1
 1137 1144 l 1
 1137 925 l 1
EndSplineSet
EndChar

StartChar: logicalnot
Encoding: 172 172 245
Width: 864
VWidth: 0
Flags: HW
PickledData: "(dp1
S'com.typemytype.robofont.layerData'
p2
(dp3
s."
LayerCount: 2
Fore
SplineSet
721 692 m 1
 721 333 l 1
 589 333 l 1
 589 556 l 1
 98 556 l 1
 98 692 l 1
 721 692 l 1
EndSplineSet
EndChar

StartChar: m
Encoding: 109 109 248
Width: 1838
VWidth: 0
Flags: HW
PickledData: "(dp1
S'com.typemytype.robofont.layerData'
p2
(dp3
s."
LayerCount: 2
Fore
SplineSet
177 0 m 1
 177 1060 l 1
 365 1060 l 1
 365 957 l 1
 427 1029 515 1080 669 1080 c 0
 833 1080 930 1024 980 941 c 1
 1005 965 l 1
 1072 1032 1173 1080 1327 1080 c 0
 1588 1080 1676 938 1676 770 c 2
 1676 0 l 1
 1488 0 l 1
 1488 783 l 2
 1488 888 1410 938 1279 938 c 0
 1095 938 1023 857 1023 755 c 2
 1023 0 l 1
 835 0 l 1
 835 783 l 2
 835 888 752 938 621 938 c 0
 437 938 365 857 365 755 c 2
 365 0 l 1
 177 0 l 1
EndSplineSet
EndChar

StartChar: macron
Encoding: 175 175 249
Width: 472
VWidth: 0
Flags: HW
PickledData: "(dp1
S'com.typemytype.robofont.layerData'
p2
(dp3
s."
LayerCount: 2
Fore
SplineSet
37 1351 m 1
 438 1351 l 1
 438 1199 l 1
 37 1199 l 1
 37 1351 l 1
EndSplineSet
EndChar

StartChar: minus
Encoding: 8722 8722 250
Width: 911
VWidth: 0
Flags: HW
PickledData: "(dp1
S'com.typemytype.robofont.layerData'
p2
(dp3
s."
LayerCount: 2
Fore
SplineSet
769 609 m 1
 769 439 l 1
 142 439 l 1
 142 609 l 1
 769 609 l 1
EndSplineSet
EndChar

StartChar: multiply
Encoding: 215 215 251
Width: 973
VWidth: 0
Flags: HW
PickledData: "(dp1
S'com.typemytype.robofont.layerData'
p2
(dp3
s."
LayerCount: 2
Fore
SplineSet
735 216 m 1
 487 458 l 1
 239 216 l 1
 129 344 l 1
 366 576 l 1
 129 806 l 1
 239 937 l 1
 487 694 l 1
 735 937 l 1
 844 806 l 1
 608 576 l 1
 844 344 l 1
 735 216 l 1
EndSplineSet
EndChar

StartChar: n
Encoding: 110 110 252
Width: 1230
VWidth: 0
Flags: HW
PickledData: "(dp1
S'com.typemytype.robofont.layerData'
p2
(dp3
s."
LayerCount: 2
Fore
SplineSet
190 0 m 1
 190 1060 l 1
 378 1060 l 1
 378 957 l 1
 440 1029 536 1080 690 1080 c 0
 951 1080 1051 938 1051 770 c 2
 1051 0 l 1
 863 0 l 1
 863 783 l 2
 863 888 773 938 642 938 c 0
 458 938 378 857 378 755 c 2
 378 0 l 1
 190 0 l 1
EndSplineSet
EndChar

StartChar: nine
Encoding: 57 57 257
Width: 1473
VWidth: 0
Flags: HW
PickledData: "(dp1
S'com.typemytype.robofont.layerData'
p2
(dp3
s."
LayerCount: 2
Fore
SplineSet
584 0 m 1
 932 621 l 1
 887 602 787 584 724 584 c 0
 433 584 187 710 187 1040 c 0
 187 1358 447 1483 739 1483 c 0
 1030 1483 1300 1360 1300 1040 c 0
 1300 958 1283 888 1253 830 c 1
 796 0 l 1
 584 0 l 1
734 1345 m 0
 544 1345 388 1275 388 1040 c 0
 388 794 543 731 732 731 c 0
 924 731 1098 798 1098 1040 c 0
 1098 1274 926 1345 734 1345 c 0
EndSplineSet
EndChar

StartChar: numbersign
Encoding: 35 35 260
Width: 1504
VWidth: 0
Flags: HW
PickledData: "(dp1
S'com.typemytype.robofont.layerData'
p2
(dp3
s."
LayerCount: 2
Fore
SplineSet
438 -1 m 1
 260 -1 l 1
 347 475 l 1
 111 475 l 1
 111 594 l 1
 369 594 l 1
 426 910 l 1
 135 910 l 1
 135 1029 l 1
 448 1029 l 1
 524 1446 l 1
 694 1446 l 1
 620 1029 l 1
 986 1029 l 1
 1062 1446 l 1
 1232 1446 l 1
 1158 1029 l 1
 1403 1029 l 1
 1403 910 l 1
 1137 910 l 1
 1081 594 l 1
 1379 594 l 1
 1379 475 l 1
 1060 475 l 1
 976 -1 l 1
 798 -1 l 1
 885 475 l 1
 522 475 l 1
 438 -1 l 1
964 910 m 1
 599 910 l 1
 543 594 l 1
 907 594 l 1
 964 910 l 1
EndSplineSet
EndChar

StartChar: o
Encoding: 111 111 261
Width: 1167
VWidth: 0
Flags: HW
PickledData: "(dp1
S'com.typemytype.robofont.layerData'
p2
(dp3
s."
LayerCount: 2
Fore
SplineSet
1017 747 m 2
 1017 317 l 2
 1017 122 912 -20 583 -20 c 0
 267 -20 150 121 150 317 c 2
 150 747 l 2
 150 947 320 1080 583 1080 c 0
 846 1080 1017 947 1017 747 c 2
829 763 m 2
 829 888 728 938 583 938 c 0
 444 938 338 894 338 763 c 2
 338 301 l 2
 338 170 436 121 583 121 c 0
 722 121 829 171 829 301 c 2
 829 763 l 2
EndSplineSet
EndChar

StartChar: one
Encoding: 49 49 271
Width: 1184
VWidth: 0
Flags: HW
PickledData: "(dp1
S'com.typemytype.robofont.layerData'
p2
(dp3
s."
LayerCount: 2
Fore
SplineSet
592 155 m 1
 592 1277 l 1
 218 1237 l 1
 200 1396 l 1
 629 1446 l 1
 793 1446 l 1
 793 155 l 1
 1147 155 l 1
 1147 0 l 1
 191 0 l 1
 191 155 l 1
 592 155 l 1
EndSplineSet
EndChar

StartChar: uni00B9
Encoding: 185 185 274
Width: 988
VWidth: 0
Flags: HW
PickledData: "(dp1
S'com.typemytype.robofont.layerData'
p2
(dp3
s."
LayerCount: 2
Fore
SplineSet
469 602 m 1
 469 1335 l 1
 225 1309 l 1
 213 1413 l 1
 493 1446 l 1
 600 1446 l 1
 600 602 l 1
 831 602 l 1
 831 501 l 1
 207 501 l 1
 207 602 l 1
 469 602 l 1
EndSplineSet
EndChar

StartChar: oslash
Encoding: 248 248 277
Width: 1167
VWidth: 0
Flags: HW
PickledData: "(dp1
S'com.typemytype.robofont.layerData'
p2
(dp3
s."
LayerCount: 2
Fore
SplineSet
150 317 m 0
 150 180 207 70 350 16 c 1
 404 162 l 1
 690 927 l 1
 740 1062 l 1
 811 1251 l 1
 901 1220 l 1
 830 1030 l 1
 777 885 l 1
 495 128 l 1
 522 123 551 121 583 121 c 0
 722 121 829 171 829 301 c 2
 829 763 l 1
583 -20 m 1
 531 -20 485 -16 444 -9 c 1
 485 -16 531 -20 583 -20 c 1
583 -20 m 0
 531 -20 485 -16 444 -9 c 1
 363 -226 l 1
 271 -195 l 1
 350 16 l 1
495 128 m 1
 444 -9 l 1
EndSplineSet
EndChar

StartChar: p
Encoding: 112 112 279
Width: 1194
VWidth: 0
Flags: HW
PickledData: "(dp1
S'com.typemytype.robofont.layerData'
p2
(dp3
s."
LayerCount: 2
Fore
SplineSet
365 -408 m 1
 177 -408 l 1
 177 1060 l 1
 325 1060 l 1
 347 980 l 1
 403 1030 518 1076 639 1076 c 0
 910 1076 1044 933 1044 729 c 2
 1044 344 l 2
 1044 131 891 -24 615 -24 c 0
 496 -24 416 8 365 34 c 1
 365 -408 l 1
365 824 m 1
 365 179 l 1
 413 152 494 117 603 117 c 0
 751 117 856 194 856 324 c 2
 856 742 l 2
 856 869 748 934 610 934 c 0
 477 934 382 850 365 824 c 1
EndSplineSet
EndChar

StartChar: paragraph
Encoding: 182 182 280
Width: 1150
VWidth: 0
Flags: HW
PickledData: "(dp1
S'com.typemytype.robofont.layerData'
p2
(dp3
s."
LayerCount: 2
Fore
SplineSet
443 0 m 1
 443 870 l 1
 271 874 126 976 126 1156 c 0
 126 1372 285 1446 479 1446 c 2
 919 1446 l 1
 919 0 l 1
 783 0 l 1
 783 1338 l 1
 579 1338 l 1
 579 0 l 1
 443 0 l 1
EndSplineSet
EndChar

StartChar: parenleft
Encoding: 40 40 281
Width: 893
VWidth: 0
Flags: HW
PickledData: "(dp1
S'com.typemytype.robofont.layerData'
p2
(dp3
s."
LayerCount: 2
Fore
SplineSet
741 0 m 1
 741 -150 l 1
 258 -150 231 139 231 440 c 2
 231 959 l 2
 231 1265 256 1567 741 1567 c 1
 741 1416 l 1
 447 1421 423 1253 423 996 c 2
 423 409 l 2
 423 153 445 0 741 0 c 1
EndSplineSet
EndChar

StartChar: parenright
Encoding: 41 41 282
Width: 893
VWidth: 0
Flags: HW
PickledData: "(dp1
S'com.typemytype.robofont.layerData'
p2
(dp3
s."
LayerCount: 2
Fore
SplineSet
152 1417 m 1
 152 1567 l 1
 635 1567 662 1278 662 977 c 2
 662 457 l 2
 662 151 637 -151 152 -151 c 1
 152 0 l 1
 446 -5 470 163 470 420 c 2
 470 1008 l 2
 470 1264 448 1417 152 1417 c 1
EndSplineSet
EndChar

StartChar: percent
Encoding: 37 37 283
Width: 2107
VWidth: 0
Flags: HW
PickledData: "(dp1
S'com.typemytype.robofont.layerData'
p2
(dp3
s."
LayerCount: 2
Fore
SplineSet
352 1020 m 2
 352 879 369 774 507 774 c 0
 645 774 664 879 664 1020 c 2
 664 1113 l 2
 664 1251 651 1345 507 1345 c 0
 364 1345 352 1251 352 1115 c 2
 352 1020 l 2
209 1037 m 2
 209 1090 l 2
 209 1323 276 1461 507 1461 c 0
 737 1461 807 1324 809 1091 c 1
 809 1037 l 2
 809 808 737 658 507 658 c 0
 277 658 209 809 209 1037 c 2
1248 1446 m 1
 1397 1446 l 1
 859 0 l 1
 705 0 l 1
 1248 1446 l 1
1313 360 m 2
 1313 413 l 2
 1313 646 1380 784 1611 784 c 0
 1841 784 1911 647 1913 414 c 1
 1913 360 l 2
 1913 131 1841 -19 1611 -19 c 0
 1381 -19 1313 132 1313 360 c 2
1456 343 m 2
 1456 202 1473 97 1611 97 c 0
 1749 97 1768 202 1768 343 c 2
 1768 436 l 2
 1768 574 1755 668 1611 668 c 0
 1468 668 1456 574 1456 438 c 2
 1456 343 l 2
EndSplineSet
EndChar

StartChar: period
Encoding: 46 46 284
Width: 512
VWidth: 0
Flags: HW
PickledData: "(dp1
S'com.typemytype.robofont.layerData'
p2
(dp3
s."
LayerCount: 2
Fore
SplineSet
164 206 m 1
 369 206 l 1
 369 0 l 1
 164 0 l 1
 164 206 l 1
EndSplineSet
EndChar

StartChar: periodcentered
Encoding: 183 183 285
Width: 412
VWidth: 0
Flags: HW
PickledData: "(dp1
S'com.typemytype.robofont.layerData'
p2
(dp3
s."
LayerCount: 2
Fore
SplineSet
108 1483 m 1
 313 1483 l 1
 313 1277 l 1
 108 1277 l 1
 108 1483 l 1
EndSplineSet
EndChar

StartChar: perthousand
Encoding: 8240 8240 286
Width: 2886
VWidth: 0
Flags: HW
PickledData: "(dp1
S'com.typemytype.robofont.layerData'
p2
(dp3
s."
LayerCount: 2
Fore
SplineSet
2235 343 m 2
 2235 202 2252 97 2390 97 c 0
 2528 97 2547 202 2547 343 c 2
 2547 436 l 2
 2547 574 2534 668 2390 668 c 0
 2247 668 2235 574 2235 438 c 2
 2235 343 l 2
2092 360 m 2
 2092 413 l 2
 2092 646 2159 784 2390 784 c 0
 2620 784 2690 647 2692 414 c 1
 2692 360 l 2
 2692 131 2620 -19 2390 -19 c 0
 2160 -19 2092 132 2092 360 c 2
352 1115 m 1
 352 1020 l 2
 352 879 369 774 507 774 c 1
 369 774 352 879 352 1020 c 2
 352 1115 l 1
664 1113 m 1
 664 1020 l 1
 664 1113 l 1
507 1461 m 1
 276 1461 209 1323 209 1090 c 1
 209 1323 276 1461 507 1461 c 1
1611 -19 m 1
 1381 -19 1313 132 1313 360 c 1
 1313 132 1381 -19 1611 -19 c 1
1611 668 m 1
 1755 668 1768 574 1768 436 c 1
 1768 574 1755 668 1611 668 c 1
1456 343 m 1
 1456 202 1473 97 1611 97 c 1
 1473 97 1456 202 1456 343 c 1
EndSplineSet
EndChar

StartChar: plus
Encoding: 43 43 287
Width: 942
VWidth: 0
Flags: HW
PickledData: "(dp1
S'com.typemytype.robofont.layerData'
p2
(dp3
s."
LayerCount: 2
Fore
SplineSet
547 968 m 1
 547 642 l 1
 822 642 l 1
 822 494 l 1
 547 494 l 1
 547 156 l 1
 396 156 l 1
 396 494 l 1
 120 494 l 1
 120 642 l 1
 396 642 l 1
 396 968 l 1
 547 968 l 1
EndSplineSet
EndChar

StartChar: plusminus
Encoding: 177 177 288
Width: 910
VWidth: 0
Flags: HW
PickledData: "(dp1
S'com.typemytype.robofont.layerData'
p2
(dp3
s."
LayerCount: 2
Fore
SplineSet
765 120 m 1
 765 0 l 1
 138 0 l 1
 138 120 l 1
 765 120 l 1
512 992 m 1
 512 726 l 1
 765 726 l 1
 765 611 l 1
 512 611 l 1
 512 334 l 1
 391 334 l 1
 391 611 l 1
 138 611 l 1
 138 726 l 1
 391 726 l 1
 391 992 l 1
 512 992 l 1
EndSplineSet
EndChar

StartChar: q
Encoding: 113 113 290
Width: 1194
VWidth: 0
Flags: HW
PickledData: "(dp1
S'com.typemytype.robofont.layerData'
p2
(dp3
s."
LayerCount: 2
Fore
SplineSet
585 935 m 0
 437 935 338 878 338 748 c 2
 338 284 l 2
 338 157 444 118 582 118 c 0
 722 118 819 180 829 201 c 1
 829 810 l 2
 829 869 752 935 585 935 c 0
1017 -408 m 1
 829 -408 l 1
 829 47 l 1
 764 -3 643 -24 570 -24 c 0
 299 -24 150 110 150 314 c 2
 150 728 l 2
 150 941 281 1076 557 1076 c 0
 665 1076 799 1025 829 975 c 1
 829 1060 l 1
 1017 1060 l 1
 1017 -408 l 1
EndSplineSet
EndChar

StartChar: quotedbl
Encoding: 34 34 293
Width: 752
VWidth: 0
Flags: HW
PickledData: "(dp1
S'com.typemytype.robofont.layerData'
p2
(dp3
s."
LayerCount: 2
Fore
SplineSet
327 1446 m 1
 258 870 l 1
 186 870 l 1
 122 1446 l 1
 327 1446 l 1
630 1446 m 1
 561 870 l 1
 489 870 l 1
 425 1446 l 1
 630 1446 l 1
EndSplineSet
EndChar

StartChar: quotesingle
Encoding: 39 39 300
Width: 583
VWidth: 0
Flags: HW
PickledData: "(dp1
S'com.typemytype.robofont.layerData'
p2
(dp3
s."
LayerCount: 2
Fore
SplineSet
414 1446 m 1
 345 870 l 1
 273 870 l 1
 209 1446 l 1
 414 1446 l 1
EndSplineSet
EndChar

StartChar: r
Encoding: 114 114 301
Width: 779
VWidth: 0
Flags: HW
PickledData: "(dp1
S'com.typemytype.robofont.layerData'
p2
(dp3
s."
LayerCount: 2
Fore
SplineSet
179 0 m 1
 179 1060 l 1
 367 1060 l 1
 367 950 l 1
 418 1027 623 1088 713 1075 c 1
 707 914 l 1
 588 904 397 893 367 812 c 1
 367 0 l 1
 179 0 l 1
EndSplineSet
EndChar

StartChar: registered
Encoding: 174 174 305
Width: 1857
VWidth: 0
Flags: HW
PickledData: "(dp1
S'com.typemytype.robofont.layerData'
p2
(dp3
s."
LayerCount: 2
Fore
SplineSet
616 307 m 1
 616 1159 l 1
 1019 1159 l 2
 1176 1159 1278 1088 1282 914 c 1
 1282 882 l 2
 1282 748 1222 679 1130 654 c 1
 1314 307 l 1
 1186 307 l 1
 1006 640 l 1
 747 640 l 1
 747 307 l 1
 616 307 l 1
747 1068 m 1
 747 730 l 1
 1014 730 l 2
 1128 730 1149 802 1150 865 c 1
 1150 907 l 2
 1150 966 1141 1068 1023 1068 c 2
 747 1068 l 1
928 -14 m 0
 515 -14 172 303 172 722 c 0
 172 1139 515 1456 928 1456 c 0
 1344 1456 1685 1139 1685 722 c 0
 1685 303 1344 -14 928 -14 c 0
930 82 m 0
 1296 82 1579 357 1579 722 c 0
 1579 1086 1296 1361 930 1361 c 0
 566 1361 281 1086 281 722 c 0
 281 357 566 82 930 82 c 0
EndSplineSet
EndChar

StartChar: ring
Encoding: 730 730 306
Width: 627
VWidth: 0
Flags: HW
PickledData: "(dp1
S'com.typemytype.robofont.layerData'
p2
(dp3
s."
LayerCount: 2
Fore
SplineSet
314 1127 m 0
 214 1127 119 1182 119 1305 c 0
 119 1428 214 1483 314 1483 c 0
 414 1483 508 1428 508 1305 c 0
 508 1182 414 1127 314 1127 c 0
314 1192 m 0
 371 1192 422 1217 422 1304 c 0
 422 1391 372 1418 314 1418 c 0
 258 1418 205 1393 205 1306 c 0
 205 1218 257 1192 314 1192 c 0
EndSplineSet
EndChar

StartChar: s
Encoding: 115 115 307
Width: 971
VWidth: 0
Flags: HW
PickledData: "(dp1
S'com.typemytype.robofont.layerData'
p2
(dp3
s."
LayerCount: 2
Fore
SplineSet
94 214 m 1
 206 303 l 1
 262 185 353 128 501 125 c 0
 637 123 706 177 712 277 c 0
 717 358 709 405 592 445 c 2
 359 524 l 2
 205 576 131 653 136 813 c 0
 142 1005 301 1081 500 1081 c 0
 700 1081 811 1011 863 927 c 1
 778 823 l 1
 723 899 644 937 515 937 c 0
 379 937 321 895 317 823 c 0
 313 763 317 715 422 678 c 2
 662 594 l 2
 820 539 886 451 882 276 c 0
 878 87 738 -21 510 -20 c 0
 310 -19 179 38 94 214 c 1
EndSplineSet
EndChar

StartChar: semicolon
Encoding: 59 59 313
Width: 684
VWidth: 0
Flags: HW
PickledData: "(dp1
S'com.typemytype.robofont.layerData'
p2
(dp3
s."
LayerCount: 2
Fore
SplineSet
263 1084 m 1
 468 1084 l 1
 468 878 l 1
 263 878 l 1
 263 1084 l 1
257 421 m 1
 491 421 l 1
 491 260 l 2
 491 69 400 -74 342 -128 c 1
 261 -84 l 1
 308 -29 375 78 375 210 c 1
 257 210 l 1
 257 421 l 1
EndSplineSet
EndChar

StartChar: seven
Encoding: 55 55 314
Width: 1142
VWidth: 0
Flags: HW
PickledData: "(dp1
S'com.typemytype.robofont.layerData'
p2
(dp3
s."
LayerCount: 2
Fore
SplineSet
501 0 m 1
 290 0 l 1
 790 1291 l 1
 110 1291 l 1
 110 1446 l 1
 991 1446 l 1
 991 1289 l 1
 501 0 l 1
EndSplineSet
EndChar

StartChar: six
Encoding: 54 54 315
Width: 1491
VWidth: 0
Flags: HW
PickledData: "(dp1
S'com.typemytype.robofont.layerData'
p2
(dp3
s."
LayerCount: 2
Fore
SplineSet
759 -24 m 0
 468 -24 198 99 198 419 c 0
 198 501 214 571 244 629 c 1
 708 1446 l 1
 915 1446 l 1
 570 844 l 1
 624 861 707 872 769 872 c 0
 1060 872 1311 749 1311 419 c 0
 1311 101 1051 -24 759 -24 c 0
764 114 m 0
 954 114 1115 184 1115 419 c 0
 1115 665 955 728 766 728 c 0
 574 728 395 661 395 419 c 0
 395 185 572 114 764 114 c 0
EndSplineSet
EndChar

StartChar: slash
Encoding: 47 47 316
Width: 979
VWidth: 0
Flags: HW
PickledData: "(dp1
S'com.typemytype.robofont.layerData'
p2
(dp3
s."
LayerCount: 2
Fore
SplineSet
665 1446 m 1
 858 1446 l 1
 320 0 l 1
 125 0 l 1
 665 1446 l 1
EndSplineSet
EndChar

StartChar: sterling
Encoding: 163 163 318
Width: 1273
VWidth: 0
Flags: HW
PickledData: "(dp1
S'com.typemytype.robofont.layerData'
p2
(dp3
s."
LayerCount: 2
Fore
SplineSet
1047 1241 m 1
 1000 1263 936 1318 790 1318 c 0
 599 1318 565 1220 546 1034 c 2
 523 809 l 1
 1036 809 l 1
 1036 668 l 1
 508 668 l 1
 456 162 l 1
 1060 162 l 1
 1060 0 l 1
 255 0 l 1
 317 668 l 1
 160 668 l 1
 160 809 l 1
 330 809 l 1
 351 1035 l 2
 376 1307 466 1484 791 1484 c 0
 959 1484 1037 1430 1102 1396 c 1
 1047 1241 l 1
EndSplineSet
EndChar

StartChar: t
Encoding: 116 116 319
Width: 814
VWidth: 0
Flags: HW
PickledData: "(dp1
S'com.typemytype.robofont.layerData'
p2
(dp3
s."
LayerCount: 2
Fore
SplineSet
548 0 m 2
 309 0 242 120 242 323 c 2
 242 944 l 1
 65 944 l 1
 65 1061 l 1
 249 1061 l 1
 272 1388 l 1
 429 1388 l 1
 429 1061 l 1
 707 1061 l 1
 707 944 l 1
 429 944 l 1
 429 315 l 2
 429 195 444 146 575 146 c 2
 717 146 l 1
 717 0 l 1
 548 0 l 2
EndSplineSet
EndChar

StartChar: three
Encoding: 51 51 323
Width: 1394
VWidth: 0
Flags: HW
PickledData: "(dp1
S'com.typemytype.robofont.layerData'
p2
(dp3
s."
LayerCount: 2
Fore
SplineSet
1041 391 m 0
 1041 604 957 687 597 687 c 1
 597 828 l 1
 1006 828 1015 944 1015 1088 c 0
 1015 1224 937 1334 725 1334 c 0
 517 1334 382 1284 384 1016 c 1
 192 1016 l 1
 199 1404 440 1483 727 1483 c 0
 976 1483 1203 1357 1203 1091 c 0
 1203 901 1119 795 931 760 c 1
 1115 726 1232 646 1232 402 c 0
 1232 106 1009 -24 725 -24 c 0
 397 -24 188 73 173 461 c 1
 369 461 l 1
 377 158 537 127 736 127 c 0
 909 127 1041 212 1041 391 c 0
EndSplineSet
EndChar

StartChar: uni00B3
Encoding: 179 179 326
Width: 1173
VWidth: 0
Flags: HW
PickledData: "(dp1
S'com.typemytype.robofont.layerData'
p2
(dp3
s."
LayerCount: 2
Fore
SplineSet
813 711 m 0
 813 862 753 921 499 921 c 1
 499 1020 l 1
 788 1020 794 1102 794 1204 c 0
 794 1300 740 1378 590 1378 c 0
 443 1378 348 1342 349 1153 c 1
 213 1153 l 1
 218 1427 388 1484 591 1484 c 0
 767 1484 927 1394 927 1206 c 0
 927 1072 868 997 735 972 c 1
 865 948 948 892 948 719 c 0
 948 510 790 418 590 418 c 0
 358 418 211 487 200 761 c 1
 338 761 l 1
 344 547 457 525 597 525 c 0
 719 525 813 584 813 711 c 0
EndSplineSet
EndChar

StartChar: trademark
Encoding: 8482 8482 328
Width: 1843
VWidth: 0
Flags: HW
PickledData: "(dp1
S'com.typemytype.robofont.layerData'
p2
(dp3
s."
LayerCount: 2
Fore
SplineSet
1043 1446 m 1
 1227 1033 l 1
 1413 1446 l 1
 1609 1446 l 1
 1609 766 l 1
 1482 766 l 1
 1482 1329 l 1
 1310 931 l 1
 1149 931 l 1
 970 1329 l 1
 970 766 l 1
 845 766 l 1
 845 1446 l 1
 1043 1446 l 1
692 1446 m 1
 692 1332 l 1
 480 1332 l 1
 480 766 l 1
 345 766 l 1
 345 1332 l 1
 133 1332 l 1
 133 1446 l 1
 692 1446 l 1
EndSplineSet
EndChar

StartChar: two
Encoding: 50 50 329
Width: 1419
VWidth: 0
Flags: HW
PickledData: "(dp1
S'com.typemytype.robofont.layerData'
p2
(dp3
s."
LayerCount: 2
Fore
SplineSet
229 0 m 1
 210 158 l 1
 807 715 l 2
 961 858 1017 938 1006 1095 c 0
 995 1246 898 1345 718 1345 c 0
 507 1345 363 1275 363 1040 c 1
 162 1040 l 1
 162 1358 411 1484 703 1484 c 0
 1014 1484 1209 1305 1209 1075 c 0
 1209 850 1118 738 959 597 c 1
 428 143 l 1
 1201 143 l 1
 1201 0 l 1
 229 0 l 1
EndSplineSet
EndChar

StartChar: uni00B2
Encoding: 178 178 330
Width: 1052
VWidth: 0
Flags: HW
PickledData: "(dp1
S'com.typemytype.robofont.layerData'
p2
(dp3
s."
LayerCount: 2
Fore
SplineSet
230 449 m 1
 219 559 l 1
 578 948 l 2
 671 1048 705 1103 698 1213 c 0
 691 1318 633 1387 525 1387 c 0
 398 1387 311 1338 311 1174 c 1
 190 1174 l 1
 190 1396 340 1484 516 1484 c 0
 703 1484 820 1359 820 1199 c 0
 820 1042 766 963 670 865 c 1
 350 549 l 1
 815 549 l 1
 815 449 l 1
 230 449 l 1
EndSplineSet
EndChar

StartChar: u
Encoding: 117 117 331
Width: 1189
VWidth: 0
Flags: HW
PickledData: "(dp1
S'com.typemytype.robofont.layerData'
p2
(dp3
s."
LayerCount: 2
Fore
SplineSet
1012 1060 m 1
 1012 0 l 1
 824 0 l 1
 824 103 l 1
 762 31 670 -20 516 -20 c 0
 255 -20 162 122 162 290 c 2
 162 1060 l 1
 350 1060 l 1
 350 285 l 2
 350 180 433 122 564 122 c 0
 748 122 824 208 824 297 c 2
 824 1060 l 1
 1012 1060 l 1
EndSplineSet
EndChar

StartChar: underscore
Encoding: 95 95 339
Width: 929
VWidth: 0
Flags: HW
PickledData: "(dp1
S'com.typemytype.robofont.layerData'
p2
(dp3
s."
LayerCount: 2
Fore
SplineSet
915 89 m 1
 915 -82 l 1
 14 -82 l 1
 14 89 l 1
 915 89 l 1
EndSplineSet
EndChar

StartChar: v
Encoding: 118 118 410
Width: 1140
VWidth: 0
Flags: HW
PickledData: "(dp1
S'com.typemytype.robofont.layerData'
p2
(dp3
s."
LayerCount: 2
Fore
SplineSet
691 0 m 1
 483 0 l 1
 90 1060 l 1
 279 1060 l 1
 590 194 l 1
 866 1060 l 1
 1050 1060 l 1
 691 0 l 1
EndSplineSet
EndChar

StartChar: w
Encoding: 119 119 411
Width: 1597
VWidth: 0
Flags: HW
PickledData: "(dp1
S'com.typemytype.robofont.layerData'
p2
(dp3
s."
LayerCount: 2
Fore
SplineSet
550 0 m 1
 362 0 l 1
 78 1060 l 1
 249 1060 l 1
 459 209 l 1
 681 1060 l 1
 928 1060 l 1
 1138 209 l 1
 1361 1060 l 1
 1527 1060 l 1
 1230 0 l 1
 1041 0 l 1
 801 894 l 1
 550 0 l 1
EndSplineSet
EndChar

StartChar: x
Encoding: 120 120 416
Width: 1049
VWidth: 0
Flags: HW
PickledData: "(dp1
S'com.typemytype.robofont.layerData'
p2
(dp3
s."
LayerCount: 2
Fore
SplineSet
80 1060 m 1
 262 1060 l 1
 527 666 l 1
 796 1060 l 1
 970 1060 l 1
 615 535 l 1
 975 0 l 1
 799 0 l 1
 526 403 l 1
 254 0 l 1
 74 0 l 1
 437 533 l 1
 80 1060 l 1
EndSplineSet
EndChar

StartChar: y
Encoding: 121 121 417
Width: 1148
VWidth: 0
Flags: HW
PickledData: "(dp1
S'com.typemytype.robofont.layerData'
p2
(dp3
s."
LayerCount: 2
Fore
SplineSet
229 -322 m 1
 229 -175 l 1
 327 -175 l 2
 408 -175 484 -145 524 4 c 1
 71 1060 l 1
 270 1060 l 1
 610 216 l 1
 915 1060 l 1
 1105 1060 l 1
 723 45 l 1
 630 -227 555 -322 334 -322 c 2
 229 -322 l 1
EndSplineSet
EndChar

StartChar: yen
Encoding: 165 165 421
Width: 1318
VWidth: 0
Flags: HW
PickledData: "(dp1
S'com.typemytype.robofont.layerData'
p2
(dp3
s."
LayerCount: 2
Fore
SplineSet
65 1446 m 1
 266 1446 l 1
 673 744 l 1
 1066 1446 l 1
 1261 1446 l 1
 867 738 l 1
 1063 738 l 1
 1063 590 l 1
 785 590 l 1
 773 568 l 1
 773 400 l 1
 1063 400 l 1
 1063 252 l 1
 773 252 l 1
 773 0 l 1
 572 0 l 1
 572 252 l 1
 260 252 l 1
 260 400 l 1
 572 400 l 1
 572 568 l 1
 559 590 l 1
 260 590 l 1
 260 738 l 1
 474 738 l 1
 65 1446 l 1
EndSplineSet
EndChar

StartChar: z
Encoding: 122 122 423
Width: 964
VWidth: 0
Flags: HW
PickledData: "(dp1
S'com.typemytype.robofont.layerData'
p2
(dp3
s."
LayerCount: 2
Fore
SplineSet
176 1060 m 1
 842 1060 l 1
 842 945 l 1
 353 124 l 1
 850 124 l 1
 850 0 l 1
 158 0 l 1
 158 118 l 1
 644 937 l 1
 176 937 l 1
 176 1060 l 1
EndSplineSet
EndChar

StartChar: zero
Encoding: 48 48 427
Width: 1386
VWidth: 0
Flags: HW
PickledData: "(dp1
S'com.typemytype.robofont.layerData'
p2
(dp3
s."
LayerCount: 2
Fore
SplineSet
702 126 m 0
 960 126 1015 229 1015 485 c 2
 1015 962 l 2
 1015 1219 958 1332 702 1332 c 0
 448 1332 372 1219 372 962 c 2
 372 485 l 2
 372 229 446 126 702 126 c 0
702 -24 m 0
 219 -24 170 215 170 516 c 2
 170 925 l 2
 170 1231 217 1483 702 1483 c 0
 1169 1483 1216 1218 1216 912 c 2
 1216 530 l 2
 1216 233 1167 -24 702 -24 c 0
EndSplineSet
EndChar
